<svg width="24" height="25" viewBox="0 0 24 25" fill="none" xmlns="http://www.w3.org/2000/svg">
<path d="M20 11.1141H13V4.11414C13 3.84892 12.8946 3.59457 12.7071 3.40703C12.5196 3.21949 12.2652 3.11414 12 3.11414C11.7348 3.11414 11.4804 3.21949 11.2929 3.40703C11.1054 3.59457 11 3.84892 11 4.11414V11.1141H4C3.73478 11.1141 3.48043 11.2195 3.29289 11.407C3.10536 11.5946 3 11.8489 3 12.1141C3 12.3794 3.10536 12.6337 3.29289 12.8212C3.48043 13.0088 3.73478 13.1141 4 13.1141H11V20.1141C11 20.3794 11.1054 20.6337 11.2929 20.8212C11.4804 21.0088 11.7348 21.1141 12 21.1141C12.2652 21.1141 12.5196 21.0088 12.7071 20.8212C12.8946 20.6337 13 20.3794 13 20.1141V13.1141H20C20.2652 13.1141 20.5196 13.0088 20.7071 12.8212C20.8946 12.6337 21 12.3794 21 12.1141C21 11.8489 20.8946 11.5946 20.7071 11.407C20.5196 11.2195 20.2652 11.1141 20 11.1141Z" fill="#333333"/>
</svg>
