<svg width="23" height="23" viewBox="0 0 23 23" fill="none" xmlns="http://www.w3.org/2000/svg">
<path fill-rule="evenodd" clip-rule="evenodd" d="M3.25016 6.1571C3.1236 6.1571 3.021 6.25971 3.021 6.38627V17.3863C3.021 17.5128 3.1236 17.6154 3.25016 17.6154H19.7502C19.8767 17.6154 19.9793 17.5128 19.9793 17.3863V6.38627C19.9793 6.25971 19.8767 6.1571 19.7502 6.1571H3.25016ZM1.646 6.38627C1.646 5.50031 2.36421 4.7821 3.25016 4.7821H19.7502C20.6361 4.7821 21.3543 5.50031 21.3543 6.38627V17.3863C21.3543 18.2722 20.6361 18.9904 19.7502 18.9904H3.25016C2.36421 18.9904 1.646 18.2722 1.646 17.3863V6.38627Z" fill="#007BFF"/>
<path fill-rule="evenodd" clip-rule="evenodd" d="M1.646 10.0529C1.646 9.67316 1.9538 9.36536 2.3335 9.36536H20.6668C21.0465 9.36536 21.3543 9.67316 21.3543 10.0529C21.3543 10.4326 21.0465 10.7404 20.6668 10.7404H2.3335C1.9538 10.7404 1.646 10.4326 1.646 10.0529Z" fill="#007BFF"/>
<path fill-rule="evenodd" clip-rule="evenodd" d="M2.3335 7.99036C2.71319 7.99036 3.021 8.29816 3.021 8.67786V11.4279C3.021 11.8076 2.71319 12.1154 2.3335 12.1154C1.9538 12.1154 1.646 11.8076 1.646 11.4279V8.67786C1.646 8.29816 1.9538 7.99036 2.3335 7.99036Z" fill="#007BFF"/>
<path fill-rule="evenodd" clip-rule="evenodd" d="M20.6665 7.99036C21.0462 7.99036 21.354 8.29816 21.354 8.67786V11.4279C21.354 11.8076 21.0462 12.1154 20.6665 12.1154C20.2868 12.1154 19.979 11.8076 19.979 11.4279V8.67786C19.979 8.29816 20.2868 7.99036 20.6665 7.99036Z" fill="#007BFF"/>
<path fill-rule="evenodd" clip-rule="evenodd" d="M13.104 14.1779C13.104 13.7982 13.4118 13.4904 13.7915 13.4904H17.4582C17.8379 13.4904 18.1457 13.7982 18.1457 14.1779C18.1457 14.5576 17.8379 14.8654 17.4582 14.8654H13.7915C13.4118 14.8654 13.104 14.5576 13.104 14.1779Z" fill="#007BFF"/>
</svg>
