<svg width="23" height="23" viewBox="0 0 23 23" fill="none" xmlns="http://www.w3.org/2000/svg">
<path fill-rule="evenodd" clip-rule="evenodd" d="M6.104 5.4696C6.104 5.08991 6.41181 4.7821 6.7915 4.7821H19.6248C20.0045 4.7821 20.3123 5.08991 20.3123 5.4696V21.0529C20.3123 21.4326 20.0045 21.7404 19.6248 21.7404H6.7915C6.41181 21.7404 6.104 21.4326 6.104 21.0529V5.4696ZM7.479 6.1571V20.3654H18.9373V6.1571H7.479Z" fill="#007BFF"/>
<path fill-rule="evenodd" clip-rule="evenodd" d="M3.354 3.17794C3.354 2.54511 3.86701 2.0321 4.49984 2.0321H16.8748C17.2545 2.0321 17.5623 2.33991 17.5623 2.7196V5.4696C17.5623 5.8493 17.2545 6.1571 16.8748 6.1571C16.4951 6.1571 16.1873 5.8493 16.1873 5.4696V3.4071H4.729V17.6154H6.7915C7.1712 17.6154 7.479 17.9232 7.479 18.3029C7.479 18.6826 7.1712 18.9904 6.7915 18.9904H4.0415C3.66181 18.9904 3.354 18.6826 3.354 18.3029V3.17794Z" fill="#007BFF"/>
<path fill-rule="evenodd" clip-rule="evenodd" d="M9.77051 10.9696C9.77051 10.5899 10.0783 10.2821 10.458 10.2821H15.958C16.3377 10.2821 16.6455 10.5899 16.6455 10.9696C16.6455 11.3493 16.3377 11.6571 15.958 11.6571H10.458C10.0783 11.6571 9.77051 11.3493 9.77051 10.9696Z" fill="#007BFF"/>
<path fill-rule="evenodd" clip-rule="evenodd" d="M9.77051 14.6362C9.77051 14.2565 10.0783 13.9487 10.458 13.9487H15.958C16.3377 13.9487 16.6455 14.2565 16.6455 14.6362C16.6455 15.0159 16.3377 15.3237 15.958 15.3237H10.458C10.0783 15.3237 9.77051 15.0159 9.77051 14.6362Z" fill="#007BFF"/>
</svg>
