<svg width="21" height="20" viewBox="0 0 21 20" fill="none" xmlns="http://www.w3.org/2000/svg">
<path fill-rule="evenodd" clip-rule="evenodd" d="M5.02763 3.125C4.88649 3.125 4.75926 3.27717 4.81149 3.44013C5.30215 4.97118 6.1248 7.84444 6.1248 10C6.1248 12.1556 5.30215 15.0288 4.81149 16.5599L4.21768 16.3696L4.81149 16.5599C4.75926 16.7228 4.88649 16.875 5.02763 16.875H15.972C16.1131 16.875 16.2403 16.7228 16.1881 16.5599C15.6974 15.0288 14.8748 12.1555 14.8748 10C14.8748 7.84445 15.6974 4.97121 16.1881 3.44015C16.2403 3.27717 16.1131 3.125 15.972 3.125H5.02763ZM3.62112 3.82162C3.31957 2.88065 4.0095 1.875 5.02763 1.875H15.972C16.9901 1.875 17.68 2.88065 17.3785 3.8216L17.3785 3.82162C16.8849 5.36173 16.1248 8.06339 16.1248 10C16.1248 11.9366 16.8849 14.6383 17.3785 16.1784L17.3785 16.1784C17.68 17.1193 16.9901 18.125 15.972 18.125H5.02763C4.0095 18.125 3.31957 17.1193 3.62112 16.1784L4.21631 16.3691L3.62112 16.1784C4.11469 14.6383 4.8748 11.9366 4.8748 10C4.8748 8.06339 4.11469 5.36173 3.62112 3.82162Z" fill="#4F4F4F"/>
<path fill-rule="evenodd" clip-rule="evenodd" d="M1.79154 5.75004C2.06768 5.54293 2.45943 5.59889 2.66654 5.87504C3.06472 6.40595 3.29523 7.14307 3.43131 7.85077C3.57053 8.57475 3.62482 9.34451 3.62482 10C3.62482 10.6556 3.57053 11.4253 3.43131 12.1493C3.29523 12.857 3.06472 13.5941 2.66654 14.125C2.45943 14.4012 2.06768 14.4571 1.79154 14.25C1.5154 14.0429 1.45943 13.6512 1.66654 13.375C1.89336 13.0726 2.07949 12.5597 2.2038 11.9133C2.32498 11.2831 2.37482 10.5945 2.37482 10C2.37482 9.40556 2.32498 8.71699 2.2038 8.08681C2.07949 7.44034 1.89336 6.92746 1.66654 6.62504C1.45943 6.34889 1.5154 5.95714 1.79154 5.75004Z" fill="#4F4F4F"/>
<path fill-rule="evenodd" clip-rule="evenodd" d="M7.375 6.4585C7.375 6.11332 7.65482 5.8335 8 5.8335H13C13.3452 5.8335 13.625 6.11332 13.625 6.4585C13.625 6.80367 13.3452 7.0835 13 7.0835H8C7.65482 7.0835 7.375 6.80367 7.375 6.4585Z" fill="#4F4F4F"/>
<path fill-rule="evenodd" clip-rule="evenodd" d="M7.375 10C7.375 9.65482 7.65482 9.375 8 9.375H13C13.3452 9.375 13.625 9.65482 13.625 10C13.625 10.3452 13.3452 10.625 13 10.625H8C7.65482 10.625 7.375 10.3452 7.375 10Z" fill="#4F4F4F"/>
<path fill-rule="evenodd" clip-rule="evenodd" d="M7.375 13.3335C7.375 12.9883 7.65482 12.7085 8 12.7085H9.66667C10.0118 12.7085 10.2917 12.9883 10.2917 13.3335C10.2917 13.6787 10.0118 13.9585 9.66667 13.9585H8C7.65482 13.9585 7.375 13.6787 7.375 13.3335Z" fill="#4F4F4F"/>
<path fill-rule="evenodd" clip-rule="evenodd" d="M19.2083 5.75004C19.4844 5.95714 19.5404 6.34889 19.3333 6.62504C19.1065 6.92746 18.9203 7.44034 18.796 8.08681C18.6748 8.71699 18.625 9.40556 18.625 10C18.625 11.1769 18.8203 12.3264 19.3923 13.4705C19.5467 13.7793 19.4215 14.1547 19.1128 14.3091C18.8041 14.4634 18.4286 14.3383 18.2743 14.0295C17.5963 12.6736 17.375 11.3232 17.375 10C17.375 9.34451 17.4293 8.57475 17.5685 7.85077C17.7046 7.14306 17.9351 6.40594 18.3333 5.87504C18.5404 5.59889 18.9321 5.54293 19.2083 5.75004Z" fill="#4F4F4F"/>
</svg>
