<svg width="20" height="21" viewBox="0 0 20 21" fill="none" xmlns="http://www.w3.org/2000/svg">
<path fill-rule="evenodd" clip-rule="evenodd" d="M1.4585 7.95752C1.4585 7.61234 1.73832 7.33252 2.0835 7.33252H17.9168C18.262 7.33252 18.5418 7.61234 18.5418 7.95752V16.7075C18.5418 17.5129 17.8889 18.1659 17.0835 18.1659H2.91683C2.11142 18.1659 1.4585 17.513 1.4585 16.7075V7.95752ZM2.7085 8.58252V16.7075C2.7085 16.8226 2.80176 16.9159 2.91683 16.9159H17.0835C17.1986 16.9159 17.2918 16.8226 17.2918 16.7075V8.58252H2.7085Z" fill="#4F4F4F"/>
<path fill-rule="evenodd" clip-rule="evenodd" d="M2.91683 3.58252C2.80177 3.58252 2.7085 3.67579 2.7085 3.79085V7.33252H17.2918V3.79085C17.2918 3.67579 17.1986 3.58252 17.0835 3.58252H2.91683ZM1.4585 3.79085C1.4585 2.98544 2.11141 2.33252 2.91683 2.33252H17.0835C17.8889 2.33252 18.5418 2.98544 18.5418 3.79085V7.95752C18.5418 8.3027 18.262 8.58252 17.9168 8.58252H2.0835C1.73832 8.58252 1.4585 8.3027 1.4585 7.95752V3.79085Z" fill="#4F4F4F"/>
<path fill-rule="evenodd" clip-rule="evenodd" d="M6.6665 1.08252C7.01168 1.08252 7.2915 1.36234 7.2915 1.70752V5.04085C7.2915 5.38603 7.01168 5.66585 6.6665 5.66585C6.32133 5.66585 6.0415 5.38603 6.0415 5.04085V1.70752C6.0415 1.36234 6.32133 1.08252 6.6665 1.08252Z" fill="#4F4F4F"/>
<path fill-rule="evenodd" clip-rule="evenodd" d="M13.3335 1.08252C13.6787 1.08252 13.9585 1.36234 13.9585 1.70752V5.04085C13.9585 5.38603 13.6787 5.66585 13.3335 5.66585C12.9883 5.66585 12.7085 5.38603 12.7085 5.04085V1.70752C12.7085 1.36234 12.9883 1.08252 13.3335 1.08252Z" fill="#4F4F4F"/>
<path fill-rule="evenodd" clip-rule="evenodd" d="M11.0415 14.2075C11.0415 13.8623 11.3213 13.5825 11.6665 13.5825H14.1665C14.5117 13.5825 14.7915 13.8623 14.7915 14.2075C14.7915 14.5527 14.5117 14.8325 14.1665 14.8325H11.6665C11.3213 14.8325 11.0415 14.5527 11.0415 14.2075Z" fill="#4F4F4F"/>
<path fill-rule="evenodd" clip-rule="evenodd" d="M5.2085 14.2075C5.2085 13.8623 5.48832 13.5825 5.8335 13.5825H8.3335C8.67867 13.5825 8.9585 13.8623 8.9585 14.2075C8.9585 14.5527 8.67867 14.8325 8.3335 14.8325H5.8335C5.48832 14.8325 5.2085 14.5527 5.2085 14.2075Z" fill="#4F4F4F"/>
<path fill-rule="evenodd" clip-rule="evenodd" d="M11.0415 10.874C11.0415 10.5288 11.3213 10.249 11.6665 10.249H14.1665C14.5117 10.249 14.7915 10.5288 14.7915 10.874C14.7915 11.2192 14.5117 11.499 14.1665 11.499H11.6665C11.3213 11.499 11.0415 11.2192 11.0415 10.874Z" fill="#4F4F4F"/>
<path fill-rule="evenodd" clip-rule="evenodd" d="M5.2085 10.874C5.2085 10.5288 5.48832 10.249 5.8335 10.249H8.3335C8.67867 10.249 8.9585 10.5288 8.9585 10.874C8.9585 11.2192 8.67867 11.499 8.3335 11.499H5.8335C5.48832 11.499 5.2085 11.2192 5.2085 10.874Z" fill="#4F4F4F"/>
</svg>
