<svg width="21" height="18" viewBox="0 0 21 18" fill="none" xmlns="http://www.w3.org/2000/svg">
<path fill-rule="evenodd" clip-rule="evenodd" d="M13.5402 1.13671C14.5502 1.53871 14.8592 2.93871 15.2722 3.38871C15.6852 3.83871 16.2762 3.99171 16.6032 3.99171C18.3412 3.99171 19.7502 5.4007 19.7502 7.1377V12.9327C19.7502 15.2627 17.8602 17.1527 15.5302 17.1527H5.47024C3.13924 17.1527 1.25024 15.2627 1.25024 12.9327V7.1377C1.25024 5.4007 2.65924 3.99171 4.39724 3.99171C4.72325 3.99171 5.31425 3.83871 5.72825 3.38871C6.14125 2.93871 6.44925 1.53871 7.45925 1.13671C8.47025 0.734705 12.5302 0.734705 13.5402 1.13671Z" stroke="#007BFF" stroke-width="1.5" stroke-linecap="round" stroke-linejoin="round"/>
<path d="M15.9955 6.58545H16.0045" stroke="#007BFF" stroke-width="2" stroke-linecap="round" stroke-linejoin="round"/>
<path fill-rule="evenodd" clip-rule="evenodd" d="M13.679 10.2134C13.679 8.45742 12.256 7.03442 10.5 7.03442C8.74404 7.03442 7.32104 8.45742 7.32104 10.2134C7.32104 11.9694 8.74404 13.3924 10.5 13.3924C12.256 13.3924 13.679 11.9694 13.679 10.2134Z" stroke="#007BFF" stroke-width="1.5" stroke-linecap="round" stroke-linejoin="round"/>
</svg>
