<svg width="14" height="14" viewBox="0 0 14 14" fill="none" xmlns="http://www.w3.org/2000/svg">
<path d="M4.77982 12.252C5.27001 12.1361 5.57345 11.6448 5.45758 11.1546C5.34171 10.6644 4.8504 10.361 4.36022 10.4768C3.87003 10.5927 3.56659 11.084 3.68246 11.5742C3.79833 12.0644 4.28964 12.3678 4.77982 12.252Z" fill="#828282"/>
<path d="M4.56843 10.2393C4.77014 10.2359 4.96889 10.2881 5.14277 10.3904C5.31666 10.4927 5.45893 10.641 5.55389 10.819C5.70553 10.6938 5.82902 10.538 5.91629 10.3618C6.00355 10.1855 6.05263 9.99286 6.0603 9.79636C6.08203 9.3409 5.9637 8.88972 5.72124 8.50355C5.46072 8.09122 5.22797 7.66199 5.02452 7.21872C4.67707 6.46447 4.42679 5.66915 4.27968 4.85185C4.25343 4.70747 4.22499 4.56856 4.19436 4.43731C4.14262 4.20938 4.01497 4.0058 3.83234 3.85993C3.64971 3.71407 3.42294 3.63458 3.18921 3.6345C3.14218 3.6345 3.09952 3.63888 3.05358 3.64325L3.03608 3.64435C2.99085 3.65142 2.94604 3.66102 2.90188 3.67311V3.22653C3.14355 3.22302 3.3759 3.13278 3.5566 2.97226C3.73729 2.81175 3.85428 2.59165 3.88626 2.35208L4.04671 1.13747C4.08148 0.872935 4.00993 0.605406 3.84775 0.393545C3.68557 0.181684 3.44599 0.0427824 3.18155 0.00729803C3.1389 0.00182928 2.25296 -0.104921 2.05062 0.873548L1.88984 2.08903C1.85694 2.3409 1.92039 2.59589 2.06749 2.80296C2.21459 3.01003 2.43448 3.1539 2.68313 3.20575V3.75558C2.42356 3.88029 2.21763 4.09439 2.10313 4.35862C1.98862 4.62285 1.9732 4.91951 2.0597 5.19419L3.72766 10.6148C3.83296 10.4959 3.96245 10.4009 4.10745 10.3362C4.25246 10.2714 4.40962 10.2384 4.56843 10.2393Z" fill="#828282"/>
<path d="M12.0956 10.8878C12.076 10.7212 12.0227 10.5604 11.9391 10.4151C11.8554 10.2697 11.743 10.1429 11.6088 10.0423C11.476 9.93913 11.3239 9.86352 11.1614 9.81994C10.9989 9.77637 10.8294 9.76571 10.6627 9.78859L6.13789 10.3923C6.0326 10.6438 5.86236 10.8627 5.64461 11.0267C5.681 11.1375 5.69947 11.2535 5.6993 11.3701C5.69898 11.67 5.57974 11.9575 5.36772 12.1696C5.15571 12.3817 4.86824 12.501 4.56836 12.5014C4.53117 12.5014 4.49508 12.4992 4.45898 12.4959V12.9597H11.2796C11.2796 12.9597 12.2805 12.5329 12.0956 10.8878Z" fill="#828282"/>
<path d="M4.45898 13.1784V13.3305C4.45916 13.5077 4.52962 13.6775 4.65491 13.8028C4.7802 13.9281 4.95008 13.9986 5.12727 13.9988H10.689C10.866 13.9983 11.0356 13.9278 11.1607 13.8025C11.2858 13.6772 11.3561 13.5075 11.3562 13.3305V13.1719L11.3463 13.1784H4.45898Z" fill="#828282"/>
</svg>
