<svg width="18" height="18" viewBox="0 0 18 18" fill="none" xmlns="http://www.w3.org/2000/svg">
<path fill-rule="evenodd" clip-rule="evenodd" d="M4.91926 4.20834C4.43506 4.20834 4.01471 4.54198 3.90479 5.01354C3.90218 5.02472 3.89927 5.03583 3.89605 5.04686L2.93357 8.34251C2.8848 8.50953 2.7686 8.64865 2.61295 8.72641L2.32881 8.86836C1.69327 9.18585 1.29175 9.83527 1.29175 10.5457V13.5833C1.29175 13.9285 1.57157 14.2083 1.91675 14.2083H2.7503C3.09548 14.2083 3.3753 14.4882 3.3753 14.8333V15.2501C3.3753 15.8254 3.84162 16.2917 4.41686 16.2917C4.99209 16.2917 5.45842 15.8254 5.45842 15.2501V14.8333C5.45842 14.4882 5.73824 14.2083 6.08342 14.2083H11.9167C12.2619 14.2083 12.5417 14.4882 12.5417 14.8333V15.25C12.5417 15.825 13.0078 16.2917 13.5847 16.2917C14.16 16.2917 14.6264 15.8253 14.6264 15.25V14.8333C14.6264 14.4882 14.9062 14.2083 15.2514 14.2083H16.0834C16.4286 14.2083 16.7084 13.9285 16.7084 13.5833V10.5451C16.7084 9.83488 16.3072 9.18564 15.672 8.86803L15.3885 8.72631C15.2308 8.64745 15.1138 8.50564 15.0662 8.33585L14.1475 5.0553C14.1445 5.04459 14.1418 5.03381 14.1393 5.02297C14.033 4.54688 13.6105 4.20834 13.1227 4.20834H4.91926ZM2.69172 4.71169C2.94002 3.68383 3.86023 2.95834 4.91926 2.95834H13.1227C14.1899 2.95834 15.115 3.69482 15.3553 4.73298L16.1952 7.73212L16.231 7.75C17.2897 8.27936 17.9584 9.36142 17.9584 10.5451V13.5833C17.9584 14.6189 17.1189 15.4583 16.0834 15.4583H15.8671C15.7618 16.6264 14.7802 17.5417 13.5847 17.5417C12.3883 17.5417 11.4064 16.6266 11.3011 15.4583H6.69908C6.59388 16.6264 5.61226 17.5417 4.41686 17.5417C3.22146 17.5417 2.23984 16.6264 2.13463 15.4583H1.91675C0.881214 15.4583 0.041748 14.6189 0.041748 13.5833V10.5457C0.041748 9.36164 0.710947 8.27928 1.77019 7.75013L1.8102 7.73014L2.69172 4.71169Z" fill="#4F4F4F"/>
<path d="M4.62516 12.75C5.20046 12.75 5.66683 12.2837 5.66683 11.7084C5.66683 11.1331 5.20046 10.6667 4.62516 10.6667C4.04987 10.6667 3.5835 11.1331 3.5835 11.7084C3.5835 12.2837 4.04987 12.75 4.62516 12.75Z" fill="#4F4F4F"/>
<path d="M13.3752 12.75C13.9505 12.75 14.4168 12.2837 14.4168 11.7084C14.4168 11.1331 13.9505 10.6667 13.3752 10.6667C12.7999 10.6667 12.3335 11.1331 12.3335 11.7084C12.3335 12.2837 12.7999 12.75 13.3752 12.75Z" fill="#4F4F4F"/>
<path fill-rule="evenodd" clip-rule="evenodd" d="M6.30014 1.39581C6.40046 0.894196 6.82546 0.458344 7.40109 0.458344H10.5989C11.1746 0.458344 11.5996 0.894196 11.6999 1.39581L12.1129 3.46077C12.1496 3.64438 12.1021 3.83478 11.9833 3.97959C11.8646 4.12439 11.6873 4.20834 11.5 4.20834H6.50001C6.31276 4.20834 6.13538 4.12439 6.01667 3.97959C5.89795 3.83478 5.85042 3.64438 5.88714 3.46077L6.30014 1.39581ZM7.51238 1.70834L7.26238 2.95834H10.7376L10.4876 1.70834H7.51238Z" fill="#4F4F4F"/>
<path fill-rule="evenodd" clip-rule="evenodd" d="M4.625 8.58334C4.625 8.23817 4.90482 7.95834 5.25 7.95834H12.75C13.0952 7.95834 13.375 8.23817 13.375 8.58334C13.375 8.92852 13.0952 9.20834 12.75 9.20834H5.25C4.90482 9.20834 4.625 8.92852 4.625 8.58334Z" fill="#4F4F4F"/>
</svg>
