<svg width="20" height="20" viewBox="0 0 20 20" fill="none" xmlns="http://www.w3.org/2000/svg">
<path fill-rule="evenodd" clip-rule="evenodd" d="M1.0415 17.5C1.0415 17.1548 1.32133 16.875 1.6665 16.875H18.3332C18.6783 16.875 18.9582 17.1548 18.9582 17.5C18.9582 17.8452 18.6783 18.125 18.3332 18.125H1.6665C1.32133 18.125 1.0415 17.8452 1.0415 17.5Z" fill="#4F4F4F"/>
<path fill-rule="evenodd" clip-rule="evenodd" d="M4.16683 9.7915C4.05177 9.7915 3.9585 9.88478 3.9585 9.99984V16.6665C3.9585 16.7816 4.05177 16.8748 4.16683 16.8748H7.50016C7.61522 16.8748 7.7085 16.7816 7.7085 16.6665V9.99984C7.7085 9.88478 7.61522 9.7915 7.50016 9.7915H4.16683ZM2.7085 9.99984C2.7085 9.19442 3.36141 8.5415 4.16683 8.5415H7.50016C8.30558 8.5415 8.9585 9.19442 8.9585 9.99984V16.6665C8.9585 17.4719 8.30558 18.1248 7.50016 18.1248H4.16683C3.36141 18.1248 2.7085 17.4719 2.7085 16.6665V9.99984Z" fill="#4F4F4F"/>
<path fill-rule="evenodd" clip-rule="evenodd" d="M9.16683 2.2915C9.05177 2.2915 8.9585 2.38478 8.9585 2.49984V16.6665C8.9585 16.7816 9.05177 16.8748 9.16683 16.8748H15.8335C15.9486 16.8748 16.0418 16.7816 16.0418 16.6665V2.49984C16.0418 2.38478 15.9486 2.2915 15.8335 2.2915H9.16683ZM7.7085 2.49984C7.7085 1.69442 8.36141 1.0415 9.16683 1.0415H15.8335C16.6389 1.0415 17.2918 1.69442 17.2918 2.49984V16.6665C17.2918 17.4719 16.6389 18.1248 15.8335 18.1248H9.16683C8.36141 18.1248 7.7085 17.4719 7.7085 16.6665V2.49984Z" fill="#4F4F4F"/>
<path fill-rule="evenodd" clip-rule="evenodd" d="M11.0415 13.3369C11.0415 12.9917 11.3213 12.7119 11.6665 12.7119H13.3332C13.6783 12.7119 13.9582 12.9917 13.9582 13.3369C13.9582 13.6821 13.6783 13.9619 13.3332 13.9619H11.6665C11.3213 13.9619 11.0415 13.6821 11.0415 13.3369Z" fill="#4F4F4F"/>
<path fill-rule="evenodd" clip-rule="evenodd" d="M4.375 13.3369C4.375 12.9917 4.65482 12.7119 5 12.7119H6.66667C7.01184 12.7119 7.29167 12.9917 7.29167 13.3369C7.29167 13.6821 7.01184 13.9619 6.66667 13.9619H5C4.65482 13.9619 4.375 13.6821 4.375 13.3369Z" fill="#4F4F4F"/>
<path fill-rule="evenodd" clip-rule="evenodd" d="M11.0415 9.58691C11.0415 9.24174 11.3213 8.96191 11.6665 8.96191H13.3332C13.6783 8.96191 13.9582 9.24174 13.9582 9.58691C13.9582 9.93209 13.6783 10.2119 13.3332 10.2119H11.6665C11.3213 10.2119 11.0415 9.93209 11.0415 9.58691Z" fill="#4F4F4F"/>
<path fill-rule="evenodd" clip-rule="evenodd" d="M11.0415 5.83691C11.0415 5.49174 11.3213 5.21191 11.6665 5.21191H13.3332C13.6783 5.21191 13.9582 5.49174 13.9582 5.83691C13.9582 6.18209 13.6783 6.46191 13.3332 6.46191H11.6665C11.3213 6.46191 11.0415 6.18209 11.0415 5.83691Z" fill="#4F4F4F"/>
</svg>
