<svg width="17" height="16" viewBox="0 0 17 16" fill="none" xmlns="http://www.w3.org/2000/svg">
<path d="M8.50017 1.33337C7.18162 1.33337 5.89269 1.72437 4.79636 2.45691C3.70004 3.18945 2.84555 4.23064 2.34097 5.44882C1.83638 6.66699 1.70436 8.00744 1.9616 9.30064C2.21883 10.5938 2.85377 11.7817 3.78612 12.7141C4.71847 13.6464 5.90636 14.2814 7.19956 14.5386C8.49277 14.7958 9.83321 14.6638 11.0514 14.1592C12.2696 13.6547 13.3108 12.8002 14.0433 11.7038C14.7758 10.6075 15.1668 9.31858 15.1668 8.00004C15.1668 7.12456 14.9944 6.25766 14.6594 5.44882C14.3243 4.63998 13.8333 3.90505 13.2142 3.286C12.5952 2.66694 11.8602 2.17588 11.0514 1.84084C10.2426 1.50581 9.37564 1.33337 8.50017 1.33337ZM10.9735 9.52671C11.036 9.58868 11.0856 9.66242 11.1194 9.74366C11.1533 9.8249 11.1707 9.91203 11.1707 10C11.1707 10.088 11.1533 10.1752 11.1194 10.2564C11.0856 10.3377 11.036 10.4114 10.9735 10.4734C10.9115 10.5359 10.8378 10.5855 10.7565 10.6193C10.6753 10.6531 10.5882 10.6706 10.5002 10.6706C10.4122 10.6706 10.325 10.6531 10.2438 10.6193C10.1625 10.5855 10.0888 10.5359 10.0268 10.4734L8.50017 8.94004L6.9735 10.4734C6.91152 10.5359 6.83779 10.5855 6.75655 10.6193C6.67531 10.6531 6.58817 10.6706 6.50017 10.6706C6.41216 10.6706 6.32502 10.6531 6.24378 10.6193C6.16254 10.5855 6.08881 10.5359 6.02683 10.4734C5.96435 10.4114 5.91475 10.3377 5.8809 10.2564C5.84706 10.1752 5.82963 10.088 5.82963 10C5.82963 9.91203 5.84706 9.8249 5.8809 9.74366C5.91475 9.66242 5.96435 9.58868 6.02683 9.52671L7.56017 8.00004L6.02683 6.47337C5.9013 6.34784 5.83077 6.17758 5.83077 6.00004C5.83077 5.82251 5.9013 5.65224 6.02683 5.52671C6.15237 5.40117 6.32263 5.33065 6.50017 5.33065C6.6777 5.33065 6.84796 5.40117 6.9735 5.52671L8.50017 7.06004L10.0268 5.52671C10.1524 5.40117 10.3226 5.33065 10.5002 5.33065C10.6777 5.33065 10.848 5.40117 10.9735 5.52671C11.099 5.65224 11.1696 5.82251 11.1696 6.00004C11.1696 6.17758 11.099 6.34784 10.9735 6.47337L9.44017 8.00004L10.9735 9.52671Z" fill="#828282"/>
</svg>
