<svg width="15" height="14" viewBox="0 0 15 14" fill="none" xmlns="http://www.w3.org/2000/svg">
<path d="M7.50017 0.333374C6.18162 0.333374 4.89269 0.724367 3.79636 1.45691C2.70004 2.18945 1.84555 3.23064 1.34097 4.44882C0.836385 5.66699 0.704362 7.00744 0.961597 8.30064C1.21883 9.59385 1.85377 10.7817 2.78612 11.7141C3.71847 12.6464 4.90636 13.2814 6.19956 13.5386C7.49277 13.7958 8.83321 13.6638 10.0514 13.1592C11.2696 12.6547 12.3108 11.8002 13.0433 10.7038C13.7758 9.60751 14.1668 8.31858 14.1668 7.00004C14.1668 6.12456 13.9944 5.25766 13.6594 4.44882C13.3243 3.63998 12.8333 2.90505 12.2142 2.286C11.5952 1.66694 10.8602 1.17588 10.0514 0.840844C9.24255 0.505812 8.37564 0.333374 7.50017 0.333374ZM9.9735 8.52671C10.036 8.58868 10.0856 8.66242 10.1194 8.74366C10.1533 8.8249 10.1707 8.91203 10.1707 9.00004C10.1707 9.08805 10.1533 9.17519 10.1194 9.25643C10.0856 9.33766 10.036 9.4114 9.9735 9.47337C9.91152 9.53586 9.83779 9.58546 9.75655 9.6193C9.67531 9.65315 9.58817 9.67057 9.50016 9.67057C9.41216 9.67057 9.32502 9.65315 9.24378 9.6193C9.16254 9.58546 9.08881 9.53586 9.02683 9.47337L7.50017 7.94004L5.9735 9.47337C5.91152 9.53586 5.83779 9.58546 5.75655 9.6193C5.67531 9.65315 5.58817 9.67057 5.50017 9.67057C5.41216 9.67057 5.32502 9.65315 5.24378 9.6193C5.16254 9.58546 5.08881 9.53586 5.02683 9.47337C4.96435 9.4114 4.91475 9.33766 4.8809 9.25643C4.84706 9.17519 4.82963 9.08805 4.82963 9.00004C4.82963 8.91203 4.84706 8.8249 4.8809 8.74366C4.91475 8.66242 4.96435 8.58868 5.02683 8.52671L6.56017 7.00004L5.02683 5.47337C4.9013 5.34784 4.83077 5.17758 4.83077 5.00004C4.83077 4.82251 4.9013 4.65224 5.02683 4.52671C5.15237 4.40117 5.32263 4.33065 5.50017 4.33065C5.6777 4.33065 5.84796 4.40117 5.9735 4.52671L7.50017 6.06004L9.02683 4.52671C9.15237 4.40117 9.32263 4.33065 9.50016 4.33065C9.6777 4.33065 9.84796 4.40117 9.9735 4.52671C10.099 4.65224 10.1696 4.82251 10.1696 5.00004C10.1696 5.17758 10.099 5.34784 9.9735 5.47337L8.44017 7.00004L9.9735 8.52671Z" fill="#828282"/>
</svg>
