<svg width="22" height="23" viewBox="0 0 22 23" fill="none" xmlns="http://www.w3.org/2000/svg">
<path fill-rule="evenodd" clip-rule="evenodd" d="M8.26839 7.69147C8.56008 7.44839 8.99359 7.4878 9.23667 7.7795L11.0002 9.89571L12.7637 7.7795C13.0068 7.4878 13.4403 7.44839 13.732 7.69147C14.0237 7.93455 14.0631 8.36806 13.82 8.65975L11.5283 11.4097C11.3977 11.5665 11.2042 11.6571 11.0002 11.6571C10.7961 11.6571 10.6026 11.5665 10.472 11.4097L8.18036 8.65975C7.93729 8.36806 7.9767 7.93455 8.26839 7.69147Z" fill="#007BFF"/>
<path fill-rule="evenodd" clip-rule="evenodd" d="M4.70062 7.67894L4.70504 7.67234C4.70967 7.66548 4.71755 7.65393 4.72863 7.63807C4.75082 7.60633 4.78581 7.55742 4.83337 7.49434C4.92859 7.36806 5.07361 7.18575 5.2665 6.97124C5.65353 6.54083 6.22604 5.98885 6.96761 5.49889C8.43698 4.52805 10.5638 3.79847 13.296 4.74423C16.0488 5.69712 17.3507 7.53027 17.9801 9.13012C18.2977 9.93733 18.4439 10.6873 18.5103 11.2349C18.5434 11.5079 18.5563 11.7283 18.5611 11.8774C18.5635 11.9519 18.5639 12.0084 18.5637 12.0445C18.5636 12.0625 18.5634 12.0755 18.5632 12.083L18.5631 12.0896C18.5631 12.0896 18.5631 12.0896 18.5631 12.0896C18.5631 12.0893 18.5685 12.0892 19.2501 12.1154L19.9371 12.1418C19.9225 12.5212 19.6031 12.817 19.2237 12.8024C18.8448 12.7878 18.5493 12.4693 18.563 12.0906C18.563 12.0904 18.5631 12.0897 18.5631 12.0896L19.2501 12.1154C19.9371 12.1418 19.9371 12.1422 19.9371 12.1418L19.9372 12.138L19.9374 12.132L19.9379 12.1135C19.9382 12.0983 19.9386 12.0776 19.9387 12.0515C19.939 11.9993 19.9384 11.9257 19.9354 11.8332C19.9295 11.6484 19.9138 11.3872 19.8753 11.0694C19.7984 10.4354 19.6295 9.5669 19.2596 8.6267C18.5141 6.73176 16.9514 4.55449 13.7458 3.44487C10.5196 2.32812 7.9486 3.20271 6.20963 4.35168C5.34703 4.92161 4.68777 5.55844 4.24408 6.05186C4.0216 6.29927 3.85152 6.51263 3.73548 6.66654C3.67741 6.74355 3.63273 6.80587 3.60164 6.85034C3.5861 6.87258 3.57394 6.89037 3.5652 6.90333L3.55465 6.9191L3.55129 6.92418L3.5501 6.926C3.54989 6.92631 3.54923 6.92733 4.10931 7.29261L3.54922 6.92733C3.34181 7.24537 3.43148 7.67134 3.74952 7.87875C4.0674 8.08606 4.49309 7.99658 4.70062 7.67894Z" fill="#007BFF"/>
<path fill-rule="evenodd" clip-rule="evenodd" d="M2.75 11.1987C3.1297 11.1987 3.4375 11.5065 3.4375 11.8862H2.75C3.4375 11.8862 3.4375 11.8865 3.4375 11.8862L3.43761 11.894C3.43774 11.9026 3.43803 11.9169 3.43866 11.9368C3.43993 11.9765 3.44256 12.038 3.44802 12.1187C3.45894 12.2801 3.48114 12.5174 3.52614 12.8091C3.61642 13.3942 3.79688 14.1878 4.15535 15.0243C4.86624 16.683 6.26938 18.5051 9.11004 19.2416C11.9778 19.9851 14.0039 19.1903 15.3228 18.2334C15.9912 17.7485 16.4844 17.2162 16.8097 16.8054C16.9719 16.6006 17.0909 16.4279 17.1678 16.3093C17.2062 16.25 17.2339 16.2044 17.2512 16.1753C17.2598 16.1607 17.2658 16.1503 17.2692 16.1444L17.2718 16.1398C17.4537 15.8069 17.8711 15.6843 18.2042 15.866C18.5375 16.0478 18.6604 16.4654 18.4786 16.7988L17.875 16.4696C18.4786 16.7988 18.4787 16.7984 18.4786 16.7988L18.4766 16.8023L18.4737 16.8076L18.4647 16.8236C18.4573 16.8366 18.4471 16.8543 18.434 16.8763C18.408 16.9202 18.3706 16.9814 18.3218 17.0569C18.2241 17.2077 18.0799 17.4163 17.8876 17.6591C17.5039 18.1435 16.9229 18.7713 16.1303 19.3464C14.5274 20.5092 12.0847 21.4332 8.76496 20.5726C5.41812 19.7049 3.72751 17.5165 2.89153 15.5659C2.47655 14.5976 2.2703 13.6868 2.16722 13.0187C2.11554 12.6838 2.0894 12.4072 2.07615 12.2115C2.06953 12.1136 2.06612 12.0357 2.06436 11.9806C2.06348 11.953 2.06302 11.9312 2.06277 11.9153L2.06254 11.8961L2.06251 11.89L2.0625 11.8878C2.0625 11.8874 2.0625 11.8862 2.75 11.8862H2.0625C2.0625 11.5065 2.3703 11.1987 2.75 11.1987Z" fill="#007BFF"/>
<path fill-rule="evenodd" clip-rule="evenodd" d="M19.25 3.86536C19.6297 3.86536 19.9375 4.17316 19.9375 4.55286V11.8862C19.9375 12.2659 19.6297 12.5737 19.25 12.5737C18.8703 12.5737 18.5625 12.2659 18.5625 11.8862V4.55286C18.5625 4.17316 18.8703 3.86536 19.25 3.86536Z" fill="#007BFF"/>
<path fill-rule="evenodd" clip-rule="evenodd" d="M2.75 11.1987C3.1297 11.1987 3.4375 11.5065 3.4375 11.8862V19.2196C3.4375 19.5993 3.1297 19.9071 2.75 19.9071C2.3703 19.9071 2.0625 19.5993 2.0625 19.2196V11.8862C2.0625 11.5065 2.3703 11.1987 2.75 11.1987Z" fill="#007BFF"/>
<path fill-rule="evenodd" clip-rule="evenodd" d="M7.5625 13.7196C7.5625 13.3399 7.8703 13.0321 8.25 13.0321H13.75C14.1297 13.0321 14.4375 13.3399 14.4375 13.7196C14.4375 14.0993 14.1297 14.4071 13.75 14.4071H8.25C7.8703 14.4071 7.5625 14.0993 7.5625 13.7196Z" fill="#007BFF"/>
<path fill-rule="evenodd" clip-rule="evenodd" d="M7.5625 10.9696C7.5625 10.5899 7.8703 10.2821 8.25 10.2821H13.75C14.1297 10.2821 14.4375 10.5899 14.4375 10.9696C14.4375 11.3493 14.1297 11.6571 13.75 11.6571H8.25C7.8703 11.6571 7.5625 11.3493 7.5625 10.9696Z" fill="#007BFF"/>
<path fill-rule="evenodd" clip-rule="evenodd" d="M11 10.2821C11.3797 10.2821 11.6875 10.5899 11.6875 10.9696V16.4696C11.6875 16.8493 11.3797 17.1571 11 17.1571C10.6203 17.1571 10.3125 16.8493 10.3125 16.4696V10.9696C10.3125 10.5899 10.6203 10.2821 11 10.2821Z" fill="#007BFF"/>
</svg>
