<svg width="61" height="60" viewBox="0 0 61 60" fill="none" xmlns="http://www.w3.org/2000/svg">
<path fill-rule="evenodd" clip-rule="evenodd" d="M30.5 0C13.9531 0 0.5 13.4531 0.5 30C0.5 46.5469 13.9531 60 30.5 60C47.0469 60 60.5 46.5469 60.5 30C60.5 13.4531 47.0469 0 30.5 0Z" fill="#4BAE4F"/>
<path fill-rule="evenodd" clip-rule="evenodd" d="M45.0078 19.8867C45.7344 20.6133 45.7344 21.8086 45.0078 22.5352L27.4297 40.1133C27.0664 40.4766 26.5859 40.6641 26.1055 40.6641C25.625 40.6641 25.1445 40.4766 24.7812 40.1133L15.9922 31.3242C15.2656 30.5977 15.2656 29.4023 15.9922 28.6758C16.7187 27.9492 17.9141 27.9492 18.6406 28.6758L26.1055 36.1406L42.3594 19.8867C43.0859 19.1484 44.2812 19.1484 45.0078 19.8867Z" fill="white"/>
</svg>
