<svg width="18" height="19" viewBox="0 0 18 19" fill="none" xmlns="http://www.w3.org/2000/svg">
<g clip-path="url(#clip0_85_363)">
<path d="M17.4726 8.472C17.1814 8.472 16.9453 8.70811 16.9453 8.99935V10.0492H15.6446V8.29137C15.6446 8.00013 15.4084 7.76402 15.1172 7.76402H13.1756L11.0272 6.24375C10.9381 6.18072 10.8317 6.14686 10.7226 6.14686H9.52738V5.04822H10.4502C10.7415 5.04822 10.9776 4.81211 10.9776 4.52088C10.9776 4.22964 10.7415 3.99353 10.4502 3.99353H7.60257C7.31133 3.99353 7.07522 4.22964 7.07522 4.52088C7.07522 4.81211 7.31133 5.04822 7.60257 5.04822H8.47269V6.14686H7.27747C7.16835 6.14686 7.06193 6.18072 6.97284 6.24375L4.82451 7.76402H2.88279C2.59155 7.76402 2.35544 8.00013 2.35544 8.29137V10.0492H1.05469V8.99935C1.05469 8.70811 0.818581 8.472 0.527346 8.472C0.23611 8.472 0 8.70811 0 8.99935V12.1538C0 12.4451 0.23611 12.6812 0.527346 12.6812C0.818581 12.6812 1.05469 12.4451 1.05469 12.1538V11.1039H2.35544V12.8618C2.35544 13.153 2.59155 13.3891 2.88279 13.3891H4.46482V14.479C4.46482 14.7702 4.70093 15.0063 4.99217 15.0063L15.1172 15.0064C15.2571 15.0064 15.3912 14.9509 15.4901 14.8519C15.589 14.753 15.6446 14.6189 15.6446 14.4791V11.1039H16.9453V12.1538C16.9453 12.4451 17.1814 12.6812 17.4726 12.6812C17.7639 12.6812 18 12.4451 18 12.1538V8.99935C18 8.70811 17.7639 8.472 17.4726 8.472ZM10.6385 11.1625L8.63676 13.1643C8.53379 13.2673 8.39882 13.3188 8.26389 13.3188C8.12896 13.3188 7.99396 13.2673 7.89102 13.1643C7.68508 12.9584 7.68508 12.6245 7.89102 12.4185L8.99254 11.317H7.73433C7.52104 11.317 7.32877 11.1885 7.24713 10.9914C7.16554 10.7944 7.21064 10.5675 7.36146 10.4167L8.87312 8.90509C9.07906 8.69915 9.41298 8.69915 9.61889 8.90509C9.82483 9.111 9.8248 9.44492 9.61889 9.65086L9.00748 10.2623H10.2657C10.479 10.2623 10.6712 10.3907 10.7529 10.5878C10.8345 10.7849 10.7894 11.0117 10.6385 11.1625Z" fill="#007BFF"/>
</g>
<defs>
<clipPath id="clip0_85_363">
<rect width="18" height="18" fill="white" transform="translate(0 0.5)"/>
</clipPath>
</defs>
</svg>
