<svg width="16" height="19" viewBox="0 0 16 19" fill="none" xmlns="http://www.w3.org/2000/svg">
<path d="M15.6571 3.41621L14.7122 1.56432C14.5145 1.17683 14.0401 1.02288 13.6525 1.22063C13.265 1.41835 13.1112 1.89282 13.3088 2.28035L13.9525 3.54196C12.9223 3.88404 12.1769 4.85614 12.1769 5.99974V7.93161C12.1769 8.25789 12.4414 8.52245 12.7677 8.52245H14.1676V10.5016C14.1676 11.3802 13.4529 12.0949 12.5744 12.0949H11.6154V1.9516C11.6153 1.1512 10.9642 0.5 10.1638 0.5H3.19727C2.18874 0.5 1.36823 1.32048 1.36823 2.329V15.6205C0.731445 15.774 0.256836 16.3482 0.256836 17.0314V17.9092C0.256836 18.2354 0.521351 18.5 0.847636 18.5H12.136C12.4623 18.5 12.7268 18.2354 12.7268 17.9092V17.0314C12.7268 16.3482 12.2521 15.774 11.6154 15.6205V13.6703H12.5744C14.3216 13.6703 15.7432 12.2488 15.7432 10.5015V3.77421C15.7431 3.64972 15.7136 3.52702 15.6571 3.41621ZM9.11747 6.38199H3.86615C3.59422 6.38199 3.37379 6.16156 3.37379 5.88963V3.01933C3.37379 2.7474 3.59422 2.52697 3.86615 2.52697H9.11747C9.38941 2.52697 9.60984 2.7474 9.60984 3.01933V5.88966C9.60984 6.16156 9.38941 6.38199 9.11747 6.38199Z" fill="#4376FB"/>
</svg>
