<svg width="23" height="22" viewBox="0 0 23 22" fill="none" xmlns="http://www.w3.org/2000/svg">
<g clip-path="url(#clip0_266_108)">
<path d="M5.37566 13.2948L4.60988 16.1536L1.81093 16.2128C0.974461 14.6614 0.5 12.8863 0.5 11C0.5 9.17589 0.943609 7.45577 1.72994 5.94116H1.73054L4.22238 6.39801L5.31396 8.8749C5.0855 9.54096 4.96097 10.256 4.96097 11C4.96106 11.8074 5.10732 12.5811 5.37566 13.2948Z" fill="#FBBB00"/>
<path d="M22.3079 8.94507C22.4342 9.61048 22.5001 10.2977 22.5001 11C22.5001 11.7875 22.4173 12.5557 22.2596 13.2967C21.7241 15.8183 20.3249 18.0201 18.3866 19.5782L18.386 19.5776L15.2474 19.4175L14.8032 16.6445C16.0894 15.8902 17.0945 14.7098 17.6239 13.2967H11.7419V8.94507H17.7097H22.3079Z" fill="#518EF8"/>
<path d="M18.386 19.5776L18.3866 19.5782C16.5015 21.0934 14.1068 22 11.5001 22C7.31104 22 3.66896 19.6586 1.81104 16.2129L5.37577 13.2949C6.30471 15.7741 8.6963 17.539 11.5001 17.539C12.7052 17.539 13.8343 17.2132 14.8031 16.6445L18.386 19.5776Z" fill="#28B446"/>
<path d="M18.5213 2.53241L14.9578 5.44981C13.9551 4.82307 12.7699 4.46102 11.5 4.46102C8.63278 4.46102 6.19645 6.30682 5.31405 8.87494L1.73058 5.9412H1.72998C3.56071 2.41154 7.24871 0 11.5 0C14.169 0 16.6162 0.950727 18.5213 2.53241Z" fill="#F14336"/>
</g>
<defs>
<clipPath id="clip0_266_108">
<rect width="22" height="22" fill="white" transform="translate(0.5)"/>
</clipPath>
</defs>
</svg>
