<svg width="24" height="24" viewBox="0 0 24 24" fill="none" xmlns="http://www.w3.org/2000/svg">
<path d="M11.9937 7.90771C9.74146 7.90771 7.90894 9.74023 7.90894 11.9926C7.90894 14.2448 9.74146 16.0773 11.9937 16.0773C14.246 16.0773 16.0786 14.2448 16.0786 11.9926C16.0786 9.74023 14.246 7.90771 11.9937 7.90771Z" fill="#007BFF"/>
<path d="M23.297 11.2895H20.7163C20.3756 7.02372 16.9625 3.61046 12.6965 3.26989V0.70294C12.6965 0.314757 12.3818 0 11.9936 0C11.6054 0 11.2906 0.314757 11.2906 0.70294V3.26989C7.02465 3.61046 3.61157 7.02372 3.27081 11.2895H0.702941C0.314758 11.2895 0 11.6043 0 11.9926C0 12.3808 0.314758 12.6956 0.702941 12.6956H3.27081C3.61157 16.9614 7.02465 20.3746 11.2906 20.7154V23.2822C11.2906 23.6703 11.6054 23.9851 11.9936 23.9851C12.3819 23.9851 12.6965 23.6703 12.6965 23.2822V20.7154C16.9625 20.3746 20.3758 16.9614 20.7163 12.6956H23.297C23.6852 12.6956 24 12.3808 24 11.9926C24 11.6043 23.6852 11.2895 23.297 11.2895ZM11.9936 19.3377C7.94347 19.3377 4.64849 16.0426 4.64849 11.9926C4.64849 7.94254 7.94347 4.64739 11.9936 4.64739C16.0437 4.64739 19.3386 7.94254 19.3386 11.9926C19.3386 16.0426 16.0437 19.3377 11.9936 19.3377Z" fill="#007BFF"/>
</svg>
