<svg width="22" height="23" viewBox="0 0 22 23" fill="none" xmlns="http://www.w3.org/2000/svg">
<path fill-rule="evenodd" clip-rule="evenodd" d="M4.03222 4.91832C5.81474 3.13583 8.27922 2.0321 11.0002 2.0321C13.7211 2.0321 16.1856 3.13582 17.9681 4.91832L17.482 5.40446L17.9681 4.91832C19.7506 6.70084 20.8543 9.16533 20.8543 11.8863C20.8543 14.6072 19.7506 17.0717 17.9681 18.8542C16.1856 20.6367 13.7211 21.7404 11.0002 21.7404C8.27922 21.7404 5.81474 20.6367 4.03222 18.8542L4.51835 18.3681L4.03221 18.8542C2.24972 17.0717 1.146 14.6072 1.146 11.8863C1.146 9.16533 2.24972 6.70085 4.03221 4.91832L4.03222 4.91832ZM11.0002 3.4071C8.65854 3.4071 6.53969 4.35542 5.00448 5.8906C3.4693 7.4258 2.521 9.54465 2.521 11.8863C2.521 14.2279 3.46931 16.3467 5.00449 17.8819C6.53969 19.4171 8.65854 20.3654 11.0002 20.3654C13.3418 20.3654 15.4606 19.4171 16.9958 17.8819C18.531 16.3467 19.4793 14.2279 19.4793 11.8863C19.4793 9.54465 18.531 7.4258 16.9958 5.89059C15.4606 4.35542 13.3418 3.4071 11.0002 3.4071Z" fill="#007BFF"/>
<path fill-rule="evenodd" clip-rule="evenodd" d="M7.5625 9.42261C7.5625 7.52413 9.10152 5.98511 11 5.98511C12.8985 5.98511 14.4375 7.52413 14.4375 9.42261C14.4375 11.0856 13.2565 12.4728 11.6875 12.7913V14.0059C11.6875 14.3856 11.3797 14.6934 11 14.6934C10.6203 14.6934 10.3125 14.3856 10.3125 14.0059V12.1726C10.3125 11.7929 10.6203 11.4851 11 11.4851C12.1391 11.4851 13.0625 10.5617 13.0625 9.42261C13.0625 8.28352 12.1391 7.36011 11 7.36011C9.86092 7.36011 8.9375 8.28352 8.9375 9.42261C8.9375 9.8023 8.6297 10.1101 8.25 10.1101C7.8703 10.1101 7.5625 9.8023 7.5625 9.42261Z" fill="#007BFF"/>
<path fill-rule="evenodd" clip-rule="evenodd" d="M10.9998 18.131C11.6327 18.131 12.1457 17.618 12.1457 16.9852C12.1457 16.3524 11.6327 15.8394 10.9998 15.8394C10.367 15.8394 9.854 16.3524 9.854 16.9852C9.854 17.618 10.367 18.131 10.9998 18.131Z" fill="#007BFF"/>
</svg>
