<svg width="18" height="18" viewBox="0 0 18 18" fill="none" xmlns="http://www.w3.org/2000/svg">
<path fill-rule="evenodd" clip-rule="evenodd" d="M0.875 1.5C0.875 1.15482 1.15482 0.875 1.5 0.875H7.33333C7.67851 0.875 7.95833 1.15482 7.95833 1.5V6.08333C7.95833 6.42851 7.67851 6.70833 7.33333 6.70833H1.5C1.15482 6.70833 0.875 6.42851 0.875 6.08333V1.5ZM2.125 2.125V5.45833H6.70833V2.125H2.125Z" fill="#4376FB"/>
<path fill-rule="evenodd" clip-rule="evenodd" d="M10.0417 11.9167C10.0417 11.5715 10.3216 11.2917 10.6667 11.2917H16.5001C16.8453 11.2917 17.1251 11.5715 17.1251 11.9167V16.5C17.1251 16.8452 16.8453 17.125 16.5001 17.125H10.6667C10.3216 17.125 10.0417 16.8452 10.0417 16.5V11.9167ZM11.2917 12.5417V15.875H15.8751V12.5417H11.2917Z" fill="#4376FB"/>
<path fill-rule="evenodd" clip-rule="evenodd" d="M10.0417 1.5C10.0417 1.15482 10.3216 0.875 10.6667 0.875H16.5001C16.8453 0.875 17.1251 1.15482 17.1251 1.5V8.58333C17.1251 8.92851 16.8453 9.20833 16.5001 9.20833H10.6667C10.3216 9.20833 10.0417 8.92851 10.0417 8.58333V1.5ZM11.2917 2.125V7.95833H15.8751V2.125H11.2917Z" fill="#4376FB"/>
<path fill-rule="evenodd" clip-rule="evenodd" d="M0.875 9.41666C0.875 9.07148 1.15482 8.79166 1.5 8.79166H7.33333C7.67851 8.79166 7.95833 9.07148 7.95833 9.41666V16.5C7.95833 16.8452 7.67851 17.125 7.33333 17.125H1.5C1.15482 17.125 0.875 16.8452 0.875 16.5V9.41666ZM2.125 10.0417V15.875H6.70833V10.0417H2.125Z" fill="#4376FB"/>
</svg>
