<svg width="22" height="23" viewBox="0 0 22 23" fill="none" xmlns="http://www.w3.org/2000/svg">
<path fill-rule="evenodd" clip-rule="evenodd" d="M1.146 9.59452C1.146 6.43041 3.71103 3.86536 6.87516 3.86536C8.49557 3.86536 9.95873 4.53853 11.0002 5.61867C12.0416 4.53853 13.5048 3.86536 15.1252 3.86536C18.2893 3.86536 20.8543 6.43041 20.8543 9.59452C20.8543 12.3794 19.2197 14.9509 17.2751 16.9147C15.3239 18.8852 12.9427 20.3646 11.217 20.9381C11.0762 20.9849 10.9241 20.9849 10.7834 20.9381C9.05766 20.3646 6.67644 18.8852 4.72518 16.9147C2.78062 14.9509 1.146 12.3794 1.146 9.59452ZM6.87516 5.24036C4.47043 5.24036 2.521 7.1898 2.521 9.59452C2.521 11.8513 3.86554 14.0923 5.70223 15.9472C7.44499 17.7072 9.52523 19.0112 11.0002 19.557C12.4751 19.0112 14.5553 17.7072 16.2981 15.9472C18.1348 14.0923 19.4793 11.8513 19.4793 9.59452C19.4793 7.1898 17.5299 5.24036 15.1252 5.24036C13.6531 5.24036 12.3514 5.97021 11.5623 7.09085C11.4335 7.27372 11.2238 7.38251 11.0002 7.38251C10.7765 7.38251 10.5668 7.27372 10.4381 7.09085C9.6489 5.97021 8.34722 5.24036 6.87516 5.24036Z" fill="#007BFF"/>
</svg>
