<svg width="23" height="23" viewBox="0 0 23 23" fill="none" xmlns="http://www.w3.org/2000/svg">
<path fill-rule="evenodd" clip-rule="evenodd" d="M3.604 9.5946C3.604 5.41794 6.98984 2.0321 11.1665 2.0321C15.3432 2.0321 18.729 5.41794 18.729 9.5946C18.729 12.8174 16.8833 15.8386 15.138 17.9911C14.2548 19.0804 13.3733 19.9765 12.7128 20.6003C12.3821 20.9126 12.1057 21.1577 11.9108 21.3257C11.8133 21.4098 11.736 21.4746 11.6825 21.519C11.6557 21.5412 11.6348 21.5583 11.6202 21.5702L11.6032 21.584L11.5983 21.5879L11.5969 21.5891L11.5963 21.5895C11.5961 21.5897 11.596 21.5898 11.1665 21.0529C10.737 21.5898 10.7369 21.5897 10.7367 21.5895L10.7362 21.5891L10.7347 21.5879L10.7298 21.584L10.7128 21.5702C10.6982 21.5583 10.6773 21.5412 10.6506 21.519C10.597 21.4746 10.5198 21.4098 10.4222 21.3257C10.2273 21.1577 9.9509 20.9126 9.62023 20.6003C8.95974 19.9765 8.07819 19.0804 7.19498 17.9911C5.44968 15.8386 3.604 12.8174 3.604 9.5946ZM11.1665 21.0529L10.737 21.5898C10.9881 21.7907 11.3449 21.7907 11.596 21.5898L11.1665 21.0529ZM11.1665 20.1505C11.3304 20.0062 11.5348 19.8215 11.7687 19.6006C12.3972 19.007 13.2344 18.1557 14.07 17.1252C15.7622 15.0381 17.354 12.3301 17.354 9.5946C17.354 6.17733 14.5838 3.4071 11.1665 3.4071C7.74923 3.4071 4.979 6.17733 4.979 9.5946C4.979 12.3301 6.57083 15.0381 8.26302 17.1252C9.09857 18.1557 9.93577 19.007 10.5643 19.6006C10.7982 19.8215 11.0026 20.0062 11.1665 20.1505Z" fill="#007BFF"/>
<path fill-rule="evenodd" clip-rule="evenodd" d="M7.729 9.5946C7.729 7.69613 9.26803 6.1571 11.1665 6.1571C13.065 6.1571 14.604 7.69613 14.604 9.5946C14.604 11.4931 13.065 13.0321 11.1665 13.0321C9.26803 13.0321 7.729 11.4931 7.729 9.5946ZM11.1665 7.5321C10.0274 7.5321 9.104 8.45552 9.104 9.5946C9.104 10.7337 10.0274 11.6571 11.1665 11.6571C12.3056 11.6571 13.229 10.7337 13.229 9.5946C13.229 8.45552 12.3056 7.5321 11.1665 7.5321Z" fill="#007BFF"/>
</svg>
