<svg width="22" height="23" viewBox="0 0 22 23" fill="none" xmlns="http://www.w3.org/2000/svg">
<path fill-rule="evenodd" clip-rule="evenodd" d="M2.0625 3.63623C2.0625 3.25653 2.3703 2.94873 2.75 2.94873H10.9962C11.3759 2.94873 11.6837 3.25653 11.6837 3.63623C11.6837 4.01593 11.3759 4.32373 10.9962 4.32373H3.4375V19.4487H11C11.3797 19.4487 11.6875 19.7565 11.6875 20.1362C11.6875 20.5159 11.3797 20.8237 11 20.8237H2.75C2.3703 20.8237 2.0625 20.5159 2.0625 20.1362V3.63623Z" fill="#007BFF"/>
<path fill-rule="evenodd" clip-rule="evenodd" d="M14.6389 7.27509C14.9073 7.00661 15.3427 7.00661 15.6111 7.27509L19.7361 11.4001C20.0046 11.6686 20.0046 12.1039 19.7361 12.3724L15.6111 16.4974C15.3427 16.7659 14.9073 16.7659 14.6389 16.4974C14.3704 16.2289 14.3704 15.7936 14.6389 15.5251L18.2777 11.8862L14.6389 8.24737C14.3704 7.97888 14.3704 7.54358 14.6389 7.27509Z" fill="#007BFF"/>
<path fill-rule="evenodd" clip-rule="evenodd" d="M6.646 11.8824C6.646 11.5028 6.9538 11.1949 7.3335 11.1949H19.2502C19.6299 11.1949 19.9377 11.5028 19.9377 11.8824C19.9377 12.2621 19.6299 12.5699 19.2502 12.5699H7.3335C6.9538 12.5699 6.646 12.2621 6.646 11.8824Z" fill="#007BFF"/>
</svg>
