<svg width="22" height="23" viewBox="0 0 22 23" fill="none" xmlns="http://www.w3.org/2000/svg">
<path fill-rule="evenodd" clip-rule="evenodd" d="M10.2908 3.43636C5.93981 3.79673 2.521 7.44225 2.521 11.8863C2.521 16.5692 6.31725 20.3654 11.0002 20.3654C15.4442 20.3654 19.0897 16.9466 19.4501 12.5956C18.256 14.1051 16.4083 15.0738 14.3335 15.0738C10.7321 15.0738 7.81268 12.1543 7.81268 8.55295C7.81268 6.47816 8.78137 4.63045 10.2908 3.43636ZM1.146 11.8863C1.146 6.44396 5.55785 2.0321 11.0002 2.0321C11.6834 2.0321 12.3511 2.10174 12.9962 2.23453C13.3093 2.29895 13.5366 2.57056 13.5449 2.89002C13.5532 3.20948 13.3403 3.49255 13.0311 3.57317C10.8194 4.14981 9.18768 6.16168 9.18768 8.55295C9.18768 11.3949 11.4915 13.6988 14.3335 13.6988C16.7248 13.6988 18.7366 12.0671 19.3132 9.85535C19.3939 9.54612 19.6769 9.33321 19.9964 9.34152C20.3158 9.34983 20.5874 9.57716 20.6519 9.89017C20.7847 10.5353 20.8543 11.2031 20.8543 11.8863C20.8543 17.3286 16.4425 21.7404 11.0002 21.7404C5.55785 21.7404 1.146 17.3286 1.146 11.8863Z" fill="#007BFF"/>
</svg>
