<svg width="21" height="20" viewBox="0 0 21 20" fill="none" xmlns="http://www.w3.org/2000/svg">
<path fill-rule="evenodd" clip-rule="evenodd" d="M6.95825 5.41667C6.95825 3.46066 8.54391 1.875 10.4999 1.875C12.4559 1.875 14.0416 3.46066 14.0416 5.41667C14.0416 7.37268 12.4559 8.95833 10.4999 8.95833C8.54391 8.95833 6.95825 7.37268 6.95825 5.41667ZM10.4999 3.125C9.23426 3.125 8.20825 4.15101 8.20825 5.41667C8.20825 6.68232 9.23426 7.70833 10.4999 7.70833C11.7656 7.70833 12.7916 6.68232 12.7916 5.41667C12.7916 4.15101 11.7656 3.125 10.4999 3.125Z" fill="#4F4F4F"/>
<path fill-rule="evenodd" clip-rule="evenodd" d="M8.30584 11.0417H12.6942C13.6043 11.0417 14.3255 11.0416 14.9069 11.0891C15.5014 11.1377 16.0044 11.239 16.4637 11.4731C17.2085 11.8526 17.8141 12.4581 18.1936 13.203C18.4276 13.6623 18.5289 14.1653 18.5775 14.7598C18.625 15.3411 18.625 16.0624 18.625 16.9725V17.5C18.625 17.8452 18.3452 18.125 18 18.125H3C2.65482 18.125 2.375 17.8452 2.375 17.5L2.375 16.9725C2.375 16.0624 2.37499 15.3411 2.42249 14.7598C2.47106 14.1653 2.5724 13.6623 2.80643 13.203C3.18593 12.4581 3.79147 11.8526 4.5363 11.4731C4.99561 11.2391 5.49864 11.1377 6.09312 11.0891C6.67447 11.0416 7.39572 11.0417 8.30584 11.0417ZM5.10377 12.5868C4.59417 12.8465 4.17985 13.2608 3.92019 13.7704C3.79091 14.0242 3.71059 14.3444 3.66834 14.8616C3.6274 15.3626 3.62513 15.9966 3.62501 16.875H17.375C17.3749 15.9966 17.3726 15.3626 17.3317 14.8616C17.2894 14.3444 17.2091 14.0242 17.0798 13.7704C16.8202 13.2608 16.4058 12.8465 15.8962 12.5868M5.10377 12.5868C5.3575 12.4576 5.67773 12.3772 6.19491 12.335C6.71939 12.2921 7.3896 12.2917 8.33333 12.2917H12.6667C13.6104 12.2917 14.2806 12.2921 14.8051 12.335C15.3223 12.3772 15.6425 12.4576 15.8962 12.5868" fill="#4F4F4F"/>
</svg>
