<svg width="39" height="38" viewBox="0 0 39 38" fill="none" xmlns="http://www.w3.org/2000/svg">
<path d="M8.8125 10.2917C8.8125 6.57525 11.8252 3.5625 15.5417 3.5625C19.2581 3.5625 22.2708 6.57525 22.2708 10.2917C22.2708 14.0081 19.2581 17.0208 15.5417 17.0208C11.8252 17.0208 8.8125 14.0081 8.8125 10.2917ZM15.5417 5.9375C13.1369 5.9375 11.1875 7.88693 11.1875 10.2917C11.1875 12.6964 13.1369 14.6458 15.5417 14.6458C17.9464 14.6458 19.8958 12.6964 19.8958 10.2917C19.8958 7.88693 17.9464 5.9375 15.5417 5.9375Z" fill="#BDBDBD"/>
<path d="M25.2973 4.9288C25.6358 4.36706 26.3655 4.18608 26.9273 4.52456C28.8783 5.7002 30.1875 7.84249 30.1875 10.2917C30.1875 12.7409 28.8783 14.8832 26.9273 16.0588C26.3655 16.3973 25.6358 16.2163 25.2973 15.6546C24.9588 15.0928 25.1398 14.363 25.7015 14.0246C26.9691 13.2608 27.8125 11.8741 27.8125 10.2917C27.8125 8.70923 26.9691 7.32259 25.7015 6.5588C25.1398 6.22031 24.9588 5.49054 25.2973 4.9288Z" fill="#BDBDBD"/>
<path d="M13.7478 20.9791H17.3357C19.0649 20.9791 20.4353 20.9791 21.5398 21.0694C22.6693 21.1616 23.6251 21.3542 24.4978 21.7988C25.9129 22.5199 27.0635 23.6705 27.7846 25.0856C28.2292 25.9583 28.4217 26.914 28.514 28.0436C28.6043 29.1481 28.6043 30.5185 28.6042 32.2477V33.25C28.6042 33.9058 28.0726 34.4375 27.4167 34.4375H3.66675C3.01091 34.4375 2.47925 33.9058 2.47925 33.25L2.47925 32.2477C2.47924 30.5185 2.47923 29.1481 2.56948 28.0436C2.66177 26.914 2.85431 25.9583 3.29897 25.0856C4.02001 23.6705 5.17054 22.5199 6.58569 21.7988C7.45838 21.3542 8.41415 21.1616 9.54368 21.0694C10.6482 20.9791 12.0186 20.9791 13.7478 20.9791ZM7.6639 23.915C6.69567 24.4083 5.90846 25.1956 5.41512 26.1638C5.16948 26.6459 5.01688 27.2543 4.93659 28.237C4.85881 29.1889 4.85449 30.3935 4.85426 32.0625H26.2292C26.229 30.3935 26.2247 29.1889 26.1469 28.237C26.0666 27.2543 25.914 26.6459 25.6684 26.1638C25.1751 25.1956 24.3878 24.4083 23.4196 23.915M23.4196 23.915C22.9375 23.6694 22.3291 23.5167 21.3464 23.4365C20.3499 23.355 19.0765 23.3541 17.2834 23.3541H13.8001C12.007 23.3541 10.7336 23.355 9.73707 23.4365C8.75443 23.5167 8.14599 23.6694 7.6639 23.915" fill="#BDBDBD"/>
<path d="M30.8172 22.3178C31.1149 21.7335 31.83 21.5011 32.4144 21.7989C33.8295 22.5199 34.9801 23.6705 35.7011 25.0856C36.1458 25.9583 36.3383 26.9141 36.4306 28.0436C36.5208 29.1482 36.5208 30.5186 36.5208 32.2478V33.25C36.5208 33.9059 35.9892 34.4375 35.3333 34.4375C34.6775 34.4375 34.1458 33.9059 34.1458 33.25V32.3C34.1458 30.5069 34.1449 29.2335 34.0635 28.237C33.9832 27.2544 33.8306 26.646 33.585 26.1639M30.8172 22.3178C30.5194 22.9022 30.7518 23.6173 31.3361 23.915L30.8172 22.3178ZM31.3361 23.915C31.8343 24.1688 32.2845 24.5005 32.6715 24.8945C33.0367 25.2664 33.3455 25.6938 33.585 26.1639" fill="#BDBDBD"/>
<path d="M32.6715 24.8945L30.8172 22.3178L31.3361 23.915C31.8343 24.1688 32.2845 24.5005 32.6715 24.8945Z" fill="#BDBDBD"/>
</svg>
