<svg width="14" height="15" viewBox="0 0 14 15" fill="none" xmlns="http://www.w3.org/2000/svg">
<path fill-rule="evenodd" clip-rule="evenodd" d="M4.52075 4.11918C4.52075 2.74998 5.63071 1.64001 6.99992 1.64001C8.36913 1.64001 9.47908 2.74998 9.47908 4.11918C9.47908 5.48839 8.36913 6.59835 6.99992 6.59835C5.63071 6.59835 4.52075 5.48839 4.52075 4.11918ZM6.99992 2.51501C6.11396 2.51501 5.39575 3.23322 5.39575 4.11918C5.39575 5.00514 6.11396 5.72335 6.99992 5.72335C7.88588 5.72335 8.60408 5.00514 8.60408 4.11918C8.60408 3.23322 7.88588 2.51501 6.99992 2.51501Z" fill="white"/>
<path fill-rule="evenodd" clip-rule="evenodd" d="M5.46409 8.05667H8.53591C9.173 8.05667 9.67787 8.05667 10.0848 8.08991C10.501 8.12391 10.8531 8.19484 11.1746 8.35866C11.6959 8.62431 12.1199 9.04821 12.3855 9.56958C12.5493 9.89109 12.6203 10.2432 12.6543 10.6594C12.6875 11.0663 12.6875 11.5712 12.6875 12.2082V12.5775C12.6875 12.8191 12.4916 13.015 12.25 13.015H1.75C1.50838 13.015 1.3125 12.8191 1.3125 12.5775L1.3125 12.2083C1.3125 11.5712 1.31249 11.0663 1.34574 10.6594C1.37974 10.2432 1.45068 9.8911 1.6145 9.56958C1.88015 9.04822 2.30403 8.62432 2.82541 8.35866C3.14692 8.19485 3.49905 8.12391 3.91519 8.08991C4.32213 8.05667 4.827 8.05667 5.46409 8.05667ZM3.22264 9.1383C2.86592 9.32006 2.57589 9.61009 2.39414 9.96682C2.30364 10.1444 2.24742 10.3686 2.21784 10.7306C2.18918 11.0813 2.18759 11.5251 2.1875 12.14H11.8125C11.8124 11.5251 11.8108 11.0813 11.7822 10.7306C11.7526 10.3686 11.6964 10.1444 11.6059 9.96682C11.4241 9.6101 11.1341 9.32006 10.7774 9.1383M3.22264 9.1383C3.40025 9.04781 3.62441 8.99158 3.98644 8.96201C4.35358 8.93201 4.82272 8.93167 5.48333 8.93167H8.51667C9.17728 8.93167 9.64642 8.93201 10.0136 8.96201C10.3756 8.99158 10.5997 9.04781 10.7774 9.1383" fill="white"/>
</svg>
