<svg width="22" height="23" viewBox="0 0 22 23" fill="none" xmlns="http://www.w3.org/2000/svg">
<path d="M11.0002 3.4071C14.1643 3.4071 16.7293 5.97213 16.7293 9.13627V17.6154H5.271V9.13627C5.271 5.97213 7.83603 3.4071 11.0002 3.4071ZM18.1043 17.6154V9.13627C18.1043 5.21274 14.9237 2.0321 11.0002 2.0321C7.07663 2.0321 3.896 5.21274 3.896 9.13627V17.6154H1.8335C1.4538 17.6154 1.146 17.9232 1.146 18.3029C1.146 18.6826 1.4538 18.9904 1.8335 18.9904H20.1668C20.5465 18.9904 20.8543 18.6826 20.8543 18.3029C20.8543 17.9232 20.5465 17.6154 20.1668 17.6154H18.1043Z" fill="#007BFF"/>
<path d="M8.021 18.3029C8.021 17.9232 8.3288 17.6154 8.7085 17.6154H13.2918C13.6715 17.6154 13.9793 17.9232 13.9793 18.3029V18.7612C13.9793 20.4065 12.6455 21.7404 11.0002 21.7404C9.35483 21.7404 8.021 20.4065 8.021 18.7612V18.3029ZM9.41224 18.9904C9.52344 19.7677 10.192 20.3654 11.0002 20.3654C11.8083 20.3654 12.4769 19.7677 12.5881 18.9904H9.41224Z" fill="#007BFF"/>
</svg>
