<svg width="14" height="14" viewBox="0 0 14 14" fill="none" xmlns="http://www.w3.org/2000/svg">
<path d="M6.58999 0.961426C5.00892 1.05218 3.52624 1.66657 2.34277 2.7213L4.17305 4.55159C4.86184 3.97816 5.69818 3.63163 6.58999 3.55015V0.961426Z" fill="#828282"/>
<path d="M3.59286 5.1314L1.7626 3.30115C0.706969 4.48428 0.0918164 5.96708 0.000488281 7.54853H2.58931C2.67134 6.65655 3.01861 5.82014 3.59286 5.1314Z" fill="#828282"/>
<path d="M11.4108 7.54866H13.9996C13.9083 5.9672 13.2931 4.48441 12.2375 3.30127L10.4072 5.13152C10.9815 5.82023 11.3287 6.65668 11.4108 7.54866Z" fill="#828282"/>
<path d="M11.4105 8.36865C11.353 9.00038 11.1727 9.52729 10.9595 9.94995C11.1675 10.2707 11.3409 10.5418 11.4555 10.7218C11.7674 11.2122 11.6984 11.8416 11.2875 12.2525C11.1877 12.3523 11.0737 12.4327 10.9502 12.4921L11.3765 12.9184C11.4567 12.9986 11.5618 13.0387 11.667 13.0387C11.7721 13.0387 11.8773 12.9986 11.9575 12.9184C13.1859 11.6901 13.9021 10.0874 14.0002 8.36865H11.4105Z" fill="#828282"/>
<path d="M2.58973 8.36865H0C0.0980273 10.0874 0.814297 11.6901 2.04266 12.9184C2.12289 12.9986 2.22802 13.0388 2.33316 13.0388C2.4383 13.0388 2.54346 12.9986 2.62369 12.9184L3.86816 11.6739C4.02858 11.5134 4.02858 11.2533 3.86816 11.0928C3.54339 10.768 2.72535 9.85881 2.58973 8.36865Z" fill="#828282"/>
<path d="M11.6574 2.7213C10.4739 1.66654 8.99123 1.05218 7.41016 0.961426V3.55015C8.30195 3.63163 9.13831 3.97816 9.8271 4.55159L11.6574 2.7213Z" fill="#828282"/>
<path d="M7.91141 7.05412C7.40891 6.55162 6.59128 6.55162 6.08879 7.05412C5.58629 7.55661 5.58629 8.37424 6.08879 8.87673C6.7236 9.51154 9.84338 11.5035 10.197 11.7286C10.3592 11.8318 10.5713 11.8085 10.7073 11.6726C10.8432 11.5366 10.8665 11.3245 10.7633 11.1623C10.5382 10.8087 8.54622 7.6889 7.91141 7.05412Z" fill="#828282"/>
</svg>
