<svg width="14" height="14" viewBox="0 0 14 14" fill="none" xmlns="http://www.w3.org/2000/svg">
<g clip-path="url(#clip0_531_191)">
<path d="M13.9198 5.11191C13.8513 5.02839 13.7491 4.97964 13.642 4.97964H12.2794C11.9432 4.09279 11.5051 3.22386 11.0072 2.89586C9.28476 1.76274 4.71608 1.76274 2.99364 2.89586C2.49536 3.22422 2.05911 4.09422 1.72107 4.97964H0.35853C0.250273 4.97964 0.148468 5.02839 0.080717 5.11191C0.0126079 5.19508 -0.0146357 5.30513 0.00758938 5.41088L0.209407 6.38878C0.24382 6.55547 0.390793 6.67448 0.560348 6.67448H0.963984C0.574329 7.124 0.385416 7.69002 0.382906 8.2564C0.380397 8.95613 0.646022 9.58847 1.13175 10.0358C1.13712 10.0405 1.1425 10.0437 1.14752 10.0484V11.4167C1.14752 11.7131 1.38841 11.9544 1.68522 11.9544H2.94202C3.23883 11.9544 3.47972 11.7131 3.47972 11.4167V10.8668H10.5204V11.4167C10.5204 11.7131 10.7613 11.9544 11.0581 11.9544H12.3149C12.611 11.9544 12.8526 11.7131 12.8526 11.4167V10.0753C13.3681 9.60317 13.6144 8.95362 13.6176 8.30515C13.6197 7.71942 13.4222 7.1326 13.0096 6.67376H13.4401C13.6104 6.67376 13.7574 6.55475 13.7911 6.38771L13.9933 5.41016C14.014 5.30513 13.9879 5.1958 13.9198 5.11191ZM3.58403 3.79382C4.95697 2.89012 9.04316 2.89012 10.4154 3.79382C10.6821 3.96876 11.0251 4.67602 11.3395 5.54208H2.66062C2.97428 4.67638 3.31733 3.96947 3.58403 3.79382ZM1.97594 8.39119C1.97594 7.80688 2.44984 7.3337 3.03378 7.3337C3.61845 7.3337 4.09163 7.80688 4.09163 8.39119C4.09163 8.97549 3.61845 9.44903 3.03378 9.44903C2.44984 9.44903 1.97594 8.97549 1.97594 8.39119ZM10.9803 9.44903C10.3964 9.44903 9.92248 8.97549 9.92248 8.39119C9.92248 7.80688 10.3964 7.3337 10.9803 7.3337C11.565 7.3337 12.0382 7.80688 12.0382 8.39119C12.0382 8.97549 11.5643 9.44903 10.9803 9.44903Z" fill="#828282"/>
</g>
<defs>
<clipPath id="clip0_531_191">
<rect width="14" height="13.9996" fill="white"/>
</clipPath>
</defs>
</svg>
