<svg width="15" height="15" viewBox="0 0 15 15" fill="none" xmlns="http://www.w3.org/2000/svg">
<g clip-path="url(#clip0_62_167)">
<path fill-rule="evenodd" clip-rule="evenodd" d="M7.18728 1.84834C7.35387 1.84792 7.50624 1.94213 7.5803 2.09135L9.28458 5.5253L13.0853 6.07949C13.2498 6.10349 13.3866 6.21871 13.4381 6.37683C13.4896 6.53495 13.4471 6.70862 13.3283 6.82498L10.564 9.53219L11.2205 13.294C11.2493 13.4587 11.1816 13.6254 11.0462 13.7235C10.9108 13.8216 10.7313 13.8339 10.5838 13.7553L7.18843 11.9456L3.79383 13.7552C3.64618 13.834 3.46658 13.8216 3.33114 13.7233C3.1957 13.6251 3.12815 13.4582 3.15712 13.2934L3.81847 9.53218L1.04964 6.82525C0.930627 6.7089 0.887942 6.5351 0.939514 6.37685C0.991086 6.2186 1.12798 6.10333 1.2927 6.07944L5.11415 5.52531L6.79552 2.09336C6.86881 1.94377 7.0207 1.84877 7.18728 1.84834ZM7.19095 3.27507L5.79833 6.11762C5.73476 6.24738 5.61123 6.33738 5.46823 6.35811L2.29426 6.81836L4.59517 9.06783C4.69843 9.16878 4.74523 9.3142 4.72022 9.45643L4.17437 12.5608L6.98259 11.0637C7.11122 10.9951 7.26555 10.9951 7.39419 11.0637L10.2045 12.5616L9.66242 9.45589C9.63765 9.31395 9.68435 9.16891 9.78729 9.06809L12.085 6.81788L8.93148 6.35807C8.78941 6.33735 8.66655 6.24825 8.60272 6.11964L7.19095 3.27507Z" fill="#828282"/>
</g>
<defs>
<clipPath id="clip0_62_167">
<rect width="14" height="14" fill="white" transform="translate(0.188721 0.827515)"/>
</clipPath>
</defs>
</svg>
