<svg width="22" height="22" viewBox="0 0 22 22" fill="none" xmlns="http://www.w3.org/2000/svg">
<rect width="22" height="22" rx="11" fill="#219653"/>
<path d="M6.59433 12.6385L6.59431 12.6385L6.59678 12.6409L8.2662 14.2937L8.26622 14.2937C8.52932 14.5541 8.88568 14.7 9.25685 14.7C9.62801 14.7 9.98437 14.5541 10.2475 14.2937L10.2475 14.2937L15.4032 9.18946L15.4032 9.18948L15.4057 9.18699C15.5153 9.07458 15.5764 8.92362 15.575 8.76652C15.5736 8.60942 15.5099 8.45955 15.3983 8.34907C15.2868 8.23865 15.1364 8.17637 14.9795 8.17502C14.8226 8.17367 14.6711 8.23335 14.5577 8.34181L14.5576 8.34179L14.5552 8.34423L9.39947 13.4484C9.39946 13.4484 9.39946 13.4484 9.39945 13.4484C9.36196 13.4855 9.31071 13.5067 9.25685 13.5067C9.20299 13.5067 9.15173 13.4855 9.11424 13.4484C9.11424 13.4484 9.11423 13.4484 9.11422 13.4484L7.44482 11.7957L7.44484 11.7957L7.44233 11.7933C7.3289 11.6848 7.1774 11.6251 7.02052 11.6265C6.86365 11.6278 6.71319 11.6901 6.60166 11.8005C6.49007 11.911 6.4264 12.0609 6.42502 12.218C6.42364 12.3751 6.48467 12.5261 6.59433 12.6385Z" fill="white" stroke="white" stroke-width="0.4"/>
</svg>
