<svg width="20" height="20" viewBox="0 0 20 20" fill="none" xmlns="http://www.w3.org/2000/svg">
<path fill-rule="evenodd" clip-rule="evenodd" d="M5.9195 5.2085C5.43531 5.2085 5.01496 5.54213 4.90503 6.01369C4.90243 6.02487 4.89951 6.03599 4.89629 6.04701L3.93382 9.34266C3.88504 9.50968 3.76885 9.64881 3.61319 9.72657L3.32906 9.86851C2.69351 10.186 2.29199 10.8354 2.29199 11.5459V14.5835C2.29199 14.9287 2.57181 15.2085 2.91699 15.2085H3.75054C4.09572 15.2085 4.37555 15.4883 4.37555 15.8335V16.2503C4.37555 16.8255 4.84187 17.2918 5.4171 17.2918C5.99234 17.2918 6.45866 16.8255 6.45866 16.2503V15.8335C6.45866 15.4883 6.73848 15.2085 7.08366 15.2085H12.917C13.2622 15.2085 13.542 15.4883 13.542 15.8335V16.2502C13.542 16.8251 14.008 17.2918 14.585 17.2918C15.1603 17.2918 15.6266 16.8255 15.6266 16.2502V15.8335C15.6266 15.4883 15.9065 15.2085 16.2516 15.2085H17.0837C17.4288 15.2085 17.7087 14.9287 17.7087 14.5835V11.5452C17.7087 10.835 17.3074 10.1858 16.6722 9.86818L16.3888 9.72646C16.2311 9.6476 16.114 9.5058 16.0665 9.336L15.1477 6.05545C15.1447 6.04475 15.142 6.03397 15.1396 6.02312C15.0333 5.54703 14.6108 5.2085 14.123 5.2085H5.9195ZM3.69196 5.71184C3.94026 4.68398 4.86047 3.9585 5.9195 3.9585H14.123C15.1902 3.9585 16.1152 4.69497 16.3555 5.73313L17.1955 8.73227L17.2312 8.75016C18.2899 9.27952 18.9587 10.3616 18.9587 11.5452V14.5835C18.9587 15.619 18.1192 16.4585 17.0837 16.4585H16.8673C16.762 17.6265 15.7804 18.5418 14.585 18.5418C13.3886 18.5418 12.4066 17.6268 12.3013 16.4585H7.69933C7.59412 17.6265 6.6125 18.5418 5.4171 18.5418C4.2217 18.5418 3.24008 17.6265 3.13488 16.4585H2.91699C1.88146 16.4585 1.04199 15.619 1.04199 14.5835V11.5459C1.04199 10.3618 1.71119 9.27943 2.77043 8.75028L2.81044 8.73029L3.69196 5.71184Z" fill="#4F4F4F"/>
<path d="M5.62565 13.7503C6.20095 13.7503 6.66732 13.284 6.66732 12.7087C6.66732 12.1334 6.20095 11.667 5.62565 11.667C5.05035 11.667 4.58398 12.1334 4.58398 12.7087C4.58398 13.284 5.05035 13.7503 5.62565 13.7503Z" fill="#4F4F4F"/>
<path d="M14.3757 13.7503C14.9509 13.7503 15.4173 13.284 15.4173 12.7087C15.4173 12.1334 14.9509 11.667 14.3757 11.667C13.8004 11.667 13.334 12.1334 13.334 12.7087C13.334 13.284 13.8004 13.7503 14.3757 13.7503Z" fill="#4F4F4F"/>
<path fill-rule="evenodd" clip-rule="evenodd" d="M7.30062 2.39596C7.40095 1.89435 7.82594 1.4585 8.40158 1.4585H11.5994C12.175 1.4585 12.6 1.89435 12.7004 2.39596L13.1134 4.46092C13.1501 4.64453 13.1025 4.83493 12.9838 4.97974C12.8651 5.12454 12.6877 5.2085 12.5005 5.2085H7.50049C7.31325 5.2085 7.13587 5.12454 7.01715 4.97974C6.89844 4.83493 6.85091 4.64453 6.88763 4.46092L7.30062 2.39596ZM8.51287 2.7085L8.26287 3.9585H11.7381L11.4881 2.7085H8.51287Z" fill="#4F4F4F"/>
<path fill-rule="evenodd" clip-rule="evenodd" d="M5.62549 9.5835C5.62549 9.23832 5.90531 8.9585 6.25049 8.9585H13.7505C14.0957 8.9585 14.3755 9.23832 14.3755 9.5835C14.3755 9.92867 14.0957 10.2085 13.7505 10.2085H6.25049C5.90531 10.2085 5.62549 9.92867 5.62549 9.5835Z" fill="#4F4F4F"/>
</svg>
