<svg width="22" height="23" viewBox="0 0 22 23" fill="none" xmlns="http://www.w3.org/2000/svg">
<g clip-path="url(#clip0_531_693)">
<path d="M16.0637 14.1333C16.0016 13.9262 15.7461 13.8293 15.4838 13.8293C15.2283 13.8293 14.9729 13.9262 14.9108 14.1333L13.5782 18.4758C13.5713 18.5035 13.5645 18.5311 13.5645 18.5448C13.5645 18.7659 13.8889 18.9176 14.1306 18.9176C14.2825 18.9176 14.3998 18.8694 14.4344 18.7382L14.6966 17.8199H16.2777L16.5402 18.7382C16.5746 18.8694 16.6919 18.9176 16.8438 18.9176C17.0855 18.9176 17.41 18.759 17.41 18.5448C17.41 18.5242 17.4031 18.5034 17.3962 18.4758L16.0637 14.1333ZM14.8831 17.1156L15.4836 14.9962L16.0845 17.1156H14.8831Z" fill="#007BFF"/>
<path d="M19.6297 9.86099H13.0251V7.04016L15.1715 5.50705C15.3409 5.38603 15.4414 5.19083 15.4414 4.9827C15.4414 4.7744 15.3409 4.57919 15.1715 4.45818L12.9992 2.9066C12.8295 1.76491 11.8428 0.88623 10.6547 0.88623H2.3705C1.06331 0.88623 0 1.94954 0 3.25673V11.5411C0 12.8482 1.06331 13.9115 2.3705 13.9115H8.97493V16.7323L6.82851 18.2654C6.65915 18.3864 6.55861 18.5818 6.55861 18.7899C6.55861 18.9981 6.65915 19.1934 6.82851 19.3143L9.00078 20.8659C9.17047 22.0076 10.1572 22.8862 11.3453 22.8862H19.6297C20.9367 22.8862 22 21.8228 22 20.5157V12.2315C22 10.9243 20.9367 9.86099 19.6297 9.86099ZM2.3705 12.6224C1.77414 12.6224 1.28906 12.1373 1.28906 11.541V3.25656C1.28906 2.66037 1.77414 2.17529 2.3705 2.17529H10.6547C11.2509 2.17529 11.736 2.66037 11.736 3.25656C11.736 3.46486 11.8365 3.66023 12.0059 3.78108L13.6879 4.98253L12.0059 6.18398C11.8365 6.30499 11.736 6.50037 11.736 6.7085V9.86099H11.3453C10.0382 9.86099 8.97493 10.9243 8.97493 12.2313V12.6224H2.3705ZM20.7109 20.5157C20.7109 21.1121 20.2259 21.5972 19.6297 21.5972H11.3453C10.7491 21.5972 10.264 21.1121 10.264 20.5157C10.264 20.3076 10.1635 20.1122 9.99409 19.9914L8.3121 18.7899L9.99409 17.5885C10.1635 17.4675 10.264 17.2721 10.264 17.064V12.2315C10.264 11.6351 10.7491 11.1501 11.3453 11.1501H12.3789H12.3805H12.3822H19.6297C20.2259 11.1501 20.7109 11.6351 20.7109 12.2315V20.5157Z" fill="#007BFF"/>
<path d="M8.49301 6.82782C8.69359 6.82782 8.8564 6.66501 8.8564 6.46426C8.8564 6.26352 8.69359 6.10071 8.49301 6.10071H6.87614V5.21817C6.87614 5.01743 6.71333 4.85461 6.51259 4.85461C6.31201 4.85461 6.1492 5.01743 6.1492 5.21817V6.10071H4.53233C4.33176 6.10071 4.16895 6.26352 4.16895 6.46426C4.16895 6.66501 4.33176 6.82782 4.53233 6.82782H5.03336C5.11342 7.59538 5.44441 8.28909 5.94225 8.82637C5.52951 9.07344 5.04745 9.21611 4.53233 9.21611C4.33176 9.21611 4.16895 9.37875 4.16895 9.5795C4.16895 9.78024 4.33176 9.94305 4.53233 9.94305C5.26784 9.94305 5.95013 9.7131 6.51259 9.32202C7.07521 9.7131 7.75751 9.94305 8.49301 9.94305C8.69359 9.94305 8.8564 9.78024 8.8564 9.5795C8.8564 9.37875 8.69359 9.21611 8.49301 9.21611C7.97789 9.21611 7.49583 9.07378 7.0831 8.82637C7.58093 8.28909 7.91193 7.59538 7.99199 6.82782H8.49301ZM6.51259 8.37218C6.11496 7.95944 5.84489 7.42351 5.76584 6.82782H7.25951C7.18045 7.42351 6.91039 7.95944 6.51259 8.37218Z" fill="#007BFF"/>
</g>
<defs>
<clipPath id="clip0_531_693">
<rect width="22" height="22" fill="white" transform="translate(0 0.88623)"/>
</clipPath>
</defs>
</svg>
