<svg width="18" height="19" viewBox="0 0 18 19" fill="none" xmlns="http://www.w3.org/2000/svg">
<path d="M2.63672 8.97266V5.7418C3.54551 5.50695 4.21875 4.68043 4.21875 3.69922C4.21875 2.53625 3.27234 1.58984 2.10938 1.58984C0.946406 1.58984 0 2.53625 0 3.69922C0 4.68043 0.673242 5.50695 1.58203 5.7418V13.2582C0.673242 13.493 0 14.3196 0 15.3008C0 16.4637 0.946406 17.4102 2.10938 17.4102C3.27234 17.4102 4.21875 16.4637 4.21875 15.3008C4.21875 14.3196 3.54551 13.493 2.63672 13.2582V10.0273H5.88023C5.82121 9.68035 5.8211 9.32039 5.88023 8.97266H2.63672Z" fill="#007BFF"/>
<path d="M15.3633 10.0309V11.6094C15.3633 11.9005 15.5995 12.1367 15.8906 12.1367C16.1817 12.1367 16.4179 11.9005 16.4179 11.6094V5.7418C17.3267 5.50695 18 4.68043 18 3.69922C18 2.53625 17.0536 1.58984 15.8906 1.58984C14.7276 1.58984 13.7812 2.53625 13.7812 3.69922C13.7812 4.68043 14.4545 5.50695 15.3633 5.7418V8.97617L12.1194 8.9709C12.1775 9.30907 12.1802 9.67388 12.1201 10.0256L15.3633 10.0309Z" fill="#007BFF"/>
<path d="M9.52734 13.2582V12.6198C9.18039 12.6788 8.82039 12.6789 8.47266 12.6198V13.2582C7.56387 13.493 6.89062 14.3196 6.89062 15.3008C6.89062 16.4637 7.83703 17.4101 9 17.4101C10.163 17.4101 11.1094 16.4637 11.1094 15.3008C11.1094 14.3196 10.4361 13.493 9.52734 13.2582Z" fill="#007BFF"/>
<path d="M9 1.58984C7.83703 1.58984 6.89062 2.53625 6.89062 3.69922C6.89062 4.68043 7.56387 5.50695 8.47266 5.7418V6.38023C8.81961 6.32121 9.17961 6.3211 9.52734 6.38023V5.7418C10.4361 5.50695 11.1094 4.68043 11.1094 3.69922C11.1094 2.53625 10.163 1.58984 9 1.58984Z" fill="#007BFF"/>
<path d="M9 11.6094C10.165 11.6094 11.1094 10.665 11.1094 9.5C11.1094 8.33502 10.165 7.39062 9 7.39062C7.83502 7.39062 6.89062 8.33502 6.89062 9.5C6.89062 10.665 7.83502 11.6094 9 11.6094Z" fill="#007BFF"/>
<path d="M15.8898 12.7959H14.8369C14.5457 12.7959 14.3096 13.032 14.3096 13.3232V16.8828C14.3096 17.174 14.5457 17.4102 14.8369 17.4102C15.1282 17.4102 15.3643 17.174 15.3643 16.8828V15.96H15.8529C16.1437 15.96 16.3803 16.1965 16.3803 16.4873V16.8828C16.3803 17.174 16.6164 17.4102 16.9076 17.4102C17.1989 17.4102 17.435 17.174 17.435 16.8828C17.4074 16.6655 17.5585 16.0421 17.0488 15.4533C17.9856 14.4445 17.2644 12.7959 15.8898 12.7959ZM15.8898 14.9053C15.7386 14.9053 15.605 14.9053 15.3643 14.9053V13.8506H15.8898C16.1806 13.8506 16.4172 14.0872 16.4172 14.3779C16.4172 14.6687 16.1806 14.9053 15.8898 14.9053Z" fill="#007BFF"/>
</svg>
