<svg width="18" height="13" viewBox="0 0 18 13" fill="none" xmlns="http://www.w3.org/2000/svg">
<path d="M17.8968 4.07248C17.8088 3.96509 17.6775 3.90241 17.5397 3.90241H15.7878C15.3555 2.76217 14.7923 1.64498 14.1521 1.22327C11.9376 -0.233602 6.06353 -0.233602 3.84896 1.22327C3.20832 1.64544 2.64742 2.76402 2.21281 3.90241H0.460968C0.321779 3.90241 0.190887 3.96509 0.103779 4.07248C0.0162102 4.17941 -0.0188173 4.3209 0.00975777 4.45686L0.269238 5.71416C0.313483 5.92848 0.502448 6.08149 0.720448 6.08149H1.23941C0.738423 6.65945 0.495534 7.38719 0.492308 8.11539C0.489082 9.01505 0.8306 9.82805 1.4551 10.4032C1.46202 10.4092 1.46893 10.4134 1.47538 10.4194V12.1786C1.47538 12.5597 1.7851 12.8699 2.16672 12.8699H3.78259C4.16421 12.8699 4.47392 12.5597 4.47392 12.1786V11.4716H13.5262V12.1786C13.5262 12.5597 13.836 12.8699 14.2176 12.8699H15.8334C16.2141 12.8699 16.5248 12.5597 16.5248 12.1786V10.4539C17.1875 9.84695 17.5042 9.01182 17.5083 8.17807C17.5111 7.42498 17.2571 6.67051 16.7266 6.08057H17.2802C17.4991 6.08057 17.6881 5.92756 17.7314 5.71278L17.9913 4.45594C18.0181 4.3209 17.9844 4.18033 17.8968 4.07248ZM4.60804 2.37779C6.37325 1.21589 11.6269 1.21589 13.3912 2.37779C13.7341 2.60271 14.1752 3.51204 14.5794 4.62555H3.42079C3.82407 3.5125 4.26514 2.60363 4.60804 2.37779ZM2.5405 8.28869C2.5405 7.53744 3.14979 6.92907 3.90058 6.92907C4.65229 6.92907 5.26066 7.53744 5.26066 8.28869C5.26066 9.03994 4.65229 9.64877 3.90058 9.64877C3.14979 9.64877 2.5405 9.03994 2.5405 8.28869ZM14.1176 9.64877C13.3668 9.64877 12.7575 9.03994 12.7575 8.28869C12.7575 7.53744 13.3668 6.92907 14.1176 6.92907C14.8693 6.92907 15.4776 7.53744 15.4776 8.28869C15.4776 9.03994 14.8683 9.64877 14.1176 9.64877Z" fill="#007BFF"/>
</svg>
