<svg width="18" height="19" viewBox="0 0 18 19" fill="none" xmlns="http://www.w3.org/2000/svg">
<path d="M9 0.5C4.02571 0.5 0 4.52525 0 9.5C0 14.4742 4.02525 18.5 9 18.5C13.9743 18.5 18 14.4747 18 9.5C18 4.52578 13.9747 0.5 9 0.5ZM9.92422 13.0726C9.92422 13.357 9.50959 13.6412 9.00018 13.6412C8.46707 13.6412 8.08801 13.357 8.08801 13.0726V8.55901C8.08801 8.22731 8.4671 8.00217 9.00018 8.00217C9.50959 8.00217 9.92422 8.22731 9.92422 8.55901V13.0726ZM9.00021 6.91236C8.45525 6.91236 8.02881 6.50957 8.02881 6.05936C8.02881 5.60919 8.45529 5.21825 9.00021 5.21825C9.53332 5.21825 9.95984 5.60919 9.95984 6.05936C9.95984 6.50957 9.53329 6.91236 9.00021 6.91236Z" fill="#4376FB"/>
</svg>
